<svg xmlns="http://www.w3.org/2000/svg" version="1.1" xmlns:xlink="http://www.w3.org/1999/xlink" width="512" height="512" x="0" y="0" viewBox="0 0 512 512" style="enable-background:new 0 0 512 512" xml:space="preserve" class=""><g><path d="M197.192 209.556h5.72c5.688-23.928 27.256-41.856 53.04-41.856 6.264 0 12.616 1.384 17.872 3.136 12.616-35.8 46.776-61.512 87.064-61.512 51 0 92.344 41.136 92.344 91.88 0 3.2-.176 6.344-.48 9.464 33.52 5.768 59.248 34.944 59.248 69.88 0 39.048-32.104 71.008-71.344 71.008H197.224c-39.24 0-71.344-31.944-71.344-71.008-.032-39.032 32.072-70.992 71.312-70.992z" style="" fill="#b5c0d6" data-original="#b5c0d6" class=""></path><path d="M314.808 260.676h-5.72c-5.688-23.928-27.256-41.856-53.04-41.856-6.264 0-12.616 1.384-17.872 3.136-12.616-35.8-46.776-61.512-87.064-61.512-51 0-92.344 41.136-92.344 91.88 0 3.2.176 6.344.48 9.464C25.728 267.548 0 296.732 0 331.668c0 39.048 32.104 71.008 71.344 71.008h243.424c39.24 0 71.344-31.944 71.344-71.008.04-39.032-32.064-70.992-71.304-70.992z" style="" fill="#dfe6f4" data-original="#dfe6f4" class=""></path></g></svg>