<svg xmlns="http://www.w3.org/2000/svg" version="1.1" xmlns:xlink="http://www.w3.org/1999/xlink" width="512" height="512" x="0" y="0" viewBox="0 0 463.899 463.899" style="enable-background:new 0 0 512 512" xml:space="preserve" class=""><g><path d="M168.098 319.91a8 8 0 0 0 5.656-2.344l32-32a8 8 0 0 0-11.312-11.312l-32 32a8 8 0 0 0 5.656 13.656zM141.754 338.254a8 8 0 0 0-11.312 0l-32 32a8 8 0 0 0-.196 11.312 8 8 0 0 0 11.508 0l32-32a8 8 0 0 0 0-11.312zM66.442 402.254l-32 32a8 8 0 0 0-.196 11.312 8 8 0 0 0 11.508 0l32-32a8 8 0 0 0-11.312-11.312zM72.098 319.91a8 8 0 0 0 5.656-2.344l32-32a8 8 0 0 0-11.312-11.312l-32 32a8 8 0 0 0 5.656 13.656zM45.754 338.254a8 8 0 0 0-11.312 0l-32 32a8 8 0 0 0-.196 11.312 8 8 0 0 0 11.508 0l32-32a8 8 0 0 0 0-11.312zM264.098 319.91a8 8 0 0 0 5.656-2.344l32-32a8 8 0 0 0-.196-11.312 8 8 0 0 0-11.116 0l-32 32a8 8 0 0 0 5.656 13.656zM237.754 338.254a8 8 0 0 0-11.312 0l-32 32a8 8 0 0 0-.196 11.312 8 8 0 0 0 11.508 0l32-32a8 8 0 0 0 0-11.312zM162.442 402.254l-32 32a8 8 0 0 0-.196 11.312 8 8 0 0 0 11.508 0l32-32a8 8 0 0 0-11.312-11.312zM397.754 274.254a8 8 0 0 0-11.312 0l-32 32a8 8 0 0 0-.196 11.312 8 8 0 0 0 11.508 0l32-32a8 8 0 0 0 0-11.312zM322.442 338.254l-32 32a8 8 0 0 0-.196 11.312 8 8 0 0 0 11.508 0l32-32a8 8 0 0 0-11.312-11.312zM258.442 402.254l-32 32a8 8 0 0 0-.196 11.312 8 8 0 0 0 11.508 0l32-32a8 8 0 0 0-11.312-11.312z" style="" fill="#4398d1" data-original="#4398d1" class=""></path><path d="m422.346 137.806.04-.224c.48-2.184.864-4.392 1.136-6.648.048-.328.096-.656.136-.992.28-2.473.427-4.959.44-7.448.388-38.176-30.245-69.439-68.422-69.827A69.128 69.128 0 0 0 301.89 77.51c-10.108-42.957-53.125-69.586-96.082-59.478a79.903 79.903 0 0 0-56.518 49.734l-.04.096-.192.52-.04.12a81.327 81.327 0 0 0-2.032 6.4l-.064.2-.08.32c0 .104 0 .216-.072.32a79.022 79.022 0 0 0-1.432 6.616l-.048.2v.152c0 .128 0 .256-.04.376-.376 2.32-.664 4.664-.8 7.048v.096c-25.193-17.894-60.122-11.977-78.017 13.216a55.947 55.947 0 0 0-10.335 32.464c-30.928 0-56 25.072-56 56s25.072 56 56 56h352c30.928-.11 55.91-25.271 55.8-56.199-.089-25.289-17.118-47.38-41.552-53.905z" style="" fill="#dedede" data-original="#dedede" class=""></path><path d="m422.346 137.806.04-.224c.48-2.184.864-4.392 1.136-6.648.048-.328.096-.656.136-.992.28-2.473.427-4.959.44-7.448a70.866 70.866 0 0 0-23.704-52.704c-55.44 109.432-174.928 157.272-266.088 178.12h273.792c30.928-.11 55.91-25.271 55.801-56.199-.09-25.289-17.119-47.38-41.553-53.905z" style="" fill="#cfcfcf" data-original="#cfcfcf" class=""></path></g></svg>