<svg xmlns="http://www.w3.org/2000/svg" version="1.1" xmlns:xlink="http://www.w3.org/1999/xlink" width="512" height="512" x="0" y="0" viewBox="0 0 64 64" style="enable-background:new 0 0 512 512" xml:space="preserve" class=""><g><path d="M32 47.5c-8.5 0-15.5-6.9-15.5-15.5 0-8.5 6.9-15.5 15.5-15.5 8.5 0 15.5 6.9 15.5 15.5 0 8.5-7 15.5-15.5 15.5zm0-29c-7.5 0-13.5 6.1-13.5 13.5 0 7.5 6.1 13.5 13.5 13.5 7.5 0 13.5-6.1 13.5-13.5 0-7.5-6-13.5-13.5-13.5zM9.3 33H2c-.5 0-1-.4-1-1 0-.5.4-1 1-1h7.2c.5 0 1 .4 1 1 0 .5-.4 1-.9 1zM49.4 22.9c-.3 0-.7-.2-.8-.5-.3-.5-.1-1.1.4-1.3l9.4-5.4c.5-.3 1.1-.1 1.3.4.3.5.1 1.1-.4 1.3l-9.4 5.4c-.1.1-.3.1-.5.1zM5.1 48.5c-.3 0-.7-.2-.8-.5-.3-.5-.1-1.1.4-1.3l9.4-5.4c.5-.3 1.1-.1 1.3.4.3.5.1 1.1-.4 1.3l-9.4 5.4c-.1 0-.3.1-.5.1zM32 12.8c-.5 0-1-.4-1-1V1c0-.5.4-1 1-1 .5 0 1 .4 1 1v10.9c0 .5-.5.9-1 .9zM32 64c-.5 0-1-.4-1-1V52.2c0-.5.4-1 1-1 .5 0 1 .4 1 1V63c0 .6-.5 1-1 1zM14.6 22.9c-.2 0-.3 0-.5-.1l-9.4-5.4c-.5-.3-.7-.9-.4-1.4s.9-.6 1.3-.4L15 21c.5.3.6.9.4 1.3s-.5.6-.8.6zM58.9 48.5c-.2 0-.3 0-.5-.1L49 42.9c-.5-.3-.6-.9-.4-1.3.3-.5.9-.6 1.3-.4l9.4 5.4c.5.3.6.9.4 1.3s-.5.6-.8.6zM17 58.9c-.2 0-.3 0-.5-.1-.5-.3-.6-.9-.4-1.3l3.6-6.3c.3-.5.9-.6 1.3-.4.5.3.6.9.4 1.3l-3.6 6.3c-.1.3-.4.5-.8.5zM47 58.9c-.3 0-.7-.2-.8-.5l-3.6-6.3c-.3-.5-.1-1.1.4-1.3.5-.3 1.1-.1 1.3.4l3.6 6.3c.3.5.1 1.1-.4 1.3-.2.1-.4.1-.5.1zM62 33h-7.2c-.5 0-1-.4-1-1 0-.5.4-1 1-1H62c.5 0 1 .4 1 1-.1.5-.5 1-1 1zM43.4 13.3c-.2 0-.3 0-.5-.1-.5-.3-.6-.9-.4-1.3l3.6-6.3c.3-.5.9-.6 1.3-.4.5.3.6.9.4 1.3l-3.6 6.3c-.2.3-.5.5-.8.5zM20.6 13.3c-.3 0-.7-.2-.8-.5l-3.6-6.3c-.3-.5-.1-1.1.4-1.3.5-.3 1.1-.1 1.3.4l3.6 6.3c.3.5.1 1.1-.4 1.3-.1 0-.3.1-.5.1z" fill="#FFFFFF" opacity="1" data-original="#000000" class=""></path></g></svg>